<mxfile host="app.diagrams.net" modified="2024-06-27T07:21:07.102Z" agent="Mozilla/5.0 (X11; Linux x86_64; rv:127.0) Gecko/20100101 Firefox/127.0" etag="oaR_v19EnkWhBkNwQyXi" version="24.6.3" type="github">
  <diagram name="Page-1" id="L1E0-ptSANLu0nl9rYRT">
    <mxGraphModel dx="1434" dy="759" grid="1" gridSize="10" guides="1" tooltips="1" connect="1" arrows="1" fold="1" page="1" pageScale="1" pageWidth="850" pageHeight="1100" math="0" shadow="0">
      <root>
        <mxCell id="0" />
        <mxCell id="1" parent="0" />
        <mxCell id="2s9oATbgOVG3-SsHbzja-4" value="&lt;b&gt;Start&lt;/b&gt;" style="strokeWidth=2;html=1;shape=mxgraph.flowchart.terminator;whiteSpace=wrap;fillColor=#e1d5e7;strokeColor=#9673a6;" vertex="1" parent="1">
          <mxGeometry x="385" y="20" width="80" height="40" as="geometry" />
        </mxCell>
        <mxCell id="2s9oATbgOVG3-SsHbzja-5" value="&lt;h1 style=&quot;margin-top: 0px;&quot;&gt;World-of-Tomorrow Flowchart&lt;br&gt;&lt;/h1&gt;For main.py" style="text;html=1;whiteSpace=wrap;overflow=hidden;rounded=0;" vertex="1" parent="1">
          <mxGeometry x="20" y="10" width="320" height="120" as="geometry" />
        </mxCell>
        <mxCell id="2s9oATbgOVG3-SsHbzja-6" value="&lt;b&gt;End&lt;/b&gt;" style="strokeWidth=2;html=1;shape=mxgraph.flowchart.terminator;whiteSpace=wrap;fillColor=#e1d5e7;strokeColor=#9673a6;" vertex="1" parent="1">
          <mxGeometry x="385" y="1040" width="80" height="40" as="geometry" />
        </mxCell>
      </root>
    </mxGraphModel>
  </diagram>
</mxfile>
